Coordinates
version=1
nRows=17
nColumns=24
inDegrees=yes

Units are S.I. units (second, meters, Newtons, ...)
Angles are in degrees.

endheader
time	pelvis_tilt	pelvis_list	pelvis_rotation	pelvis_tx	pelvis_ty	pelvis_tz	hip_flexion_r	hip_adduction_r	hip_rotation_r	knee_angle_r	ankle_angle_r	subtalar_angle_r	mtp_angle_r	hip_flexion_l	hip_adduction_l	hip_rotation_l	knee_angle_l	ankle_angle_l	subtalar_angle_l	mtp_angle_l	lumbar_extension	lumbar_bending	lumbar_rotation
      5.81500000	    -10.96463294	      0.14604359	     -1.49720228	     -1.81297336	     -0.02711320	     -0.26078917	     -5.35248523	      2.82622850	      9.93374262	    -13.95617143	      6.82327199	      5.64547551	     19.31056120	     33.22497714	     -1.13310202	      3.36837101	     -7.16127176	     -1.50270571	     -1.18680642	      8.15062451	      8.67796993	     -0.23894288	     13.57958359
      5.82000000	    -11.07535508	      0.31340993	     -1.52228404	     -1.80644900	     -0.02787885	     -0.26176246	     -5.34302149	      2.54232798	      9.58832009	    -14.51489484	      6.71923054	      6.35918136	     19.59250951	     33.31360695	     -0.88380617	      3.42705345	     -7.77804498	     -1.86740926	     -1.46471668	      8.24916310	      8.92266526	     -0.39785649	     13.57458495
      5.82500000	    -11.15373994	      0.49412668	     -1.49882744	     -1.79994263	     -0.02852604	     -0.26281014	     -5.36252932	      2.24210072	      9.21564011	    -15.06849300	      6.48462258	      7.02022312	     19.92709642	     33.37257527	     -0.59087988	      3.52571149	     -8.39460697	     -2.34491575	     -1.77902792	      8.43867016	      9.12586965	     -0.57909359	     13.51875455
      5.83000000	    -11.24448866	      0.73078121	     -1.45678832	     -1.79346104	     -0.02911540	     -0.26383924	     -5.34363365	      1.88748841	      8.85325282	    -15.65892531	      6.21927232	      7.63325226	     20.29534384	     33.45637536	     -0.23618927	      3.64145491	     -9.03624769	     -2.85601576	     -2.08111038	      8.64039283	      9.33807290	     -0.83609543	     13.45743437
      5.83500000	    -11.33715168	      0.98641968	     -1.37605078	     -1.78701519	     -0.02959114	     -0.26493846	     -5.29910300	      1.50494765	      8.41205589	    -16.27045896	      5.86430601	      8.29592713	     20.73389549	     33.55394138	      0.16619042	      3.80961908	     -9.69289130	     -3.41678294	     -2.41113839	      8.84409304	      9.54609198	     -1.11845788	     13.35745198
      5.84000000	    -11.43458749	      1.28648816	     -1.25914878	     -1.78058277	     -0.02996400	     -0.26607159	     -5.23040561	      1.07313765	      7.93770117	    -16.90298494	      5.43150456	      8.95227723	     21.21645667	     33.66992681	      0.63721215	      4.01888465	    -10.38080940	     -3.97047620	     -2.71480678	      9.00056826	      9.75637438	     -1.45694283	     13.24608157
      5.84500000	    -11.53347874	      1.62291897	     -1.10554530	     -1.77419373	     -0.03023403	     -0.26721722	     -5.12940583	      0.60233032	      7.41837607	    -17.57955948	      4.94025085	      9.62148291	     21.73162496	     33.80263446	      1.16839637	      4.27695167	    -11.10744340	     -4.48683412	     -2.95822025	      9.07413642	      9.95916530	     -1.85016877	     13.11239421
      5.85000000	    -11.63373811	      1.99832988	     -0.93251883	     -1.76782323	     -0.03039866	     -0.26832855	     -4.99580504	      0.08979493	      6.88011614	    -18.30432817	      4.39264119	     10.31499714	     22.24882245	     33.94012601	      1.74883567	      4.59035208	    -11.86230818	     -4.94641443	     -3.11234296	      9.05781991	     10.15778893	     -2.30358822	     12.93324335
      5.85500000	    -11.72108968	      2.39260336	     -0.72449445	     -1.76140388	     -0.03041800	     -0.26953641	     -4.87699693	     -0.46132064	      6.27002365	    -18.98043758	      3.54731887	     10.96646422	     23.29137241	     34.04914762	      2.39426874	      5.05178659	    -12.62429984	     -5.42575458	     -3.43718613	      8.77202042	     10.34937889	     -2.77131009	     12.77540319
      5.86000000	    -11.80337069	      2.78689213	     -0.49406320	     -1.75507852	     -0.03043221	     -0.27060395	     -4.69713349	     -1.00171141	      5.59207087	    -19.81352227	      2.91594626	     11.76573834	     23.73140402	     34.20569613	      3.02467155	      5.36187281	    -13.48377481	     -5.69969918	     -3.29062693	      8.66413161	     10.50900521	     -3.27449178	     12.57187742
      5.86500000	    -11.88367747	      3.21361235	     -0.24093665	     -1.74862560	     -0.03031732	     -0.27179829	     -4.53303406	     -1.60324008	      4.88024984	    -20.57112286	      1.90723943	     12.49689371	     24.91106235	     34.30305753	      3.74304434	      5.93034998	    -14.29726557	     -6.01706147	     -3.52685039	      7.92576946	     10.68713584	     -3.79846900	     12.40616299
      5.87000000	    -11.93698148	      3.58402412	      0.01196364	     -1.74219400	     -0.03018451	     -0.27282914	     -4.34205258	     -2.14383302	      4.09276042	    -21.46417998	      1.05671302	     13.41810719	     25.34315410	     34.40314387	      4.36537297	      6.28090719	    -15.15197385	     -6.17305225	     -3.23721545	      7.75281006	     10.82611504	     -4.28557591	     12.21663092
      5.87500000	    -11.99721714	      4.00837078	      0.27939938	     -1.73565456	     -0.02998263	     -0.27394942	     -4.14241844	     -2.76305392	      3.29899558	    -22.31248306	     -0.16127131	     14.19513622	     26.58185967	     34.44301581	      5.09048664	      6.86184310	    -15.93843583	     -6.36188609	     -3.35898607	      6.80239529	     10.98633512	     -4.82734962	     12.02533242
      5.88000000	    -12.02603069	      4.34971296	      0.54136559	     -1.72907102	     -0.02978463	     -0.27487801	     -3.93728660	     -3.28983583	      2.48245261	    -23.27792790	     -1.22598225	     15.15018130	     26.89869849	     34.46666151	      5.67738151	      7.16330677	    -16.72413819	     -6.44225553	     -2.97698041	      6.68173545	     11.11631814	     -5.30242519	     11.82110044
      5.88500000	    -12.06038232	      4.71608522	      0.77643659	     -1.72246615	     -0.02954051	     -0.27595170	     -3.69573557	     -3.88671553	      1.60641673	    -24.21260607	     -2.70750243	     15.96541939	     28.17529768	     34.42006376	      6.33108544	      7.77052327	    -17.42715489	     -6.54560078	     -3.10147101	      5.70559751	     11.25528916	     -5.76786399	     11.66936021
      5.89000000	    -12.08251063	      5.01301424	      1.00449672	     -1.71582061	     -0.02932531	     -0.27690769	     -3.43185319	     -4.41319905	      0.74293940	    -25.22812365	     -4.17222527	     16.85775988	     28.96719745	     34.35885129	      6.87667550	      8.17187862	    -18.10898235	     -6.53218824	     -2.91700172	      5.17575253	     11.38808341	     -6.17339697	     11.52406797
      5.89500000	    -12.08997303	      5.27655612	      1.20491938	     -1.70914109	     -0.02911157	     -0.27775979	     -3.14431870	     -4.90737185	     -0.07257234	    -26.33257562	     -5.58272488	     17.75522528	     29.07586869	     34.25459152	      7.34870669	      8.43781098	    -18.71592387	     -6.57047361	     -2.68317935	      5.13856126	     11.51309684	     -6.54328062	     11.39126128
